<svg id="Ebene_1" data-name="Ebene 1" xmlns="http://www.w3.org/2000/svg" viewBox="0 0 425.28 145.24"><defs><style>.cls-1{fill:#f39fa6;}.cls-1,.cls-2,.cls-3,.cls-4{fill-rule:evenodd;}.cls-2{fill:#9d9e9e;}.cls-3{fill:#c12031;}.cls-4,.cls-5{fill:#727271;}</style></defs><path class="cls-1" d="M127.47,50.65C83,50.65,40.07,33.6,0,0V54.62a266.07,266.07,0,0,0,32.18,18C63,58.17,95.12,50.65,127.47,50.65Z"/><path class="cls-2" d="M32.18,72.62A267.35,267.35,0,0,0,0,90.61v54.63c40.07-33.6,83-50.65,127.47-50.65C95.11,94.59,63,87.07,32.18,72.62Z"/><path class="cls-3" d="M32.18,72.62c30.77,14.45,62.93,22,95.29,22V50.65C95.12,50.65,63,58.17,32.18,72.62Z"/><polygon class="cls-4" points="162.45 111.59 158.91 111.59 158.91 121.33 157.27 121.33 157.27 111.59 153.75 111.59 153.75 110.15 162.45 110.15 162.45 111.59"/><path class="cls-4" d="M180.15,110.15,178,120.86a.61.61,0,0,1-.63.47h-1.8a.58.58,0,0,1-.63-.49l-1.62-8.21c-.11-.56-.18-1-.23-1.26h-.34l-.24,1.26-1.6,8.21a.53.53,0,0,1-.22.35.68.68,0,0,1-.41.14h-1.82a.56.56,0,0,1-.61-.47l-2.14-10.71h1.72l1.6,8.52c0,.18.1.66.19,1.43h.38a12.55,12.55,0,0,1,.24-1.43l1.6-8a.59.59,0,0,1,.62-.54h1.73a.57.57,0,0,1,.4.16.73.73,0,0,1,.22.38l1.58,8c.09.43.17.9.25,1.41h.37c0-.15,0-.39.1-.7s.08-.55.11-.7l1.6-8.55Z"/><path class="cls-4" d="M190,112.32a3,3,0,0,0-4.33,0,10.21,10.21,0,0,0,0,6.84,3,3,0,0,0,4.33,0,10,10,0,0,0,0-6.84Zm-2.17-2.38a4.2,4.2,0,0,1,3.49,1.26c.65.85,1,2.36,1,4.54s-.33,3.69-1,4.54a5.42,5.42,0,0,1-7,0c-.66-.85-1-2.36-1-4.54s.33-3.69,1-4.54A4.16,4.16,0,0,1,187.78,109.94Z"/><path class="cls-4" d="M215,110.15l-2.13,10.71a.62.62,0,0,1-.64.47H210.4a.59.59,0,0,1-.64-.49l-1.62-8.21c-.1-.56-.18-1-.22-1.26h-.34l-.24,1.26-1.61,8.21a.5.5,0,0,1-.22.35.68.68,0,0,1-.41.14h-1.82a.56.56,0,0,1-.61-.47l-2.14-10.71h1.72l1.6,8.52c0,.18.1.66.2,1.43h.37a12.55,12.55,0,0,1,.24-1.43l1.61-8a.58.58,0,0,1,.61-.54h1.73a.54.54,0,0,1,.4.16.67.67,0,0,1,.22.38l1.59,8q.12.65.24,1.41h.37c0-.15.06-.39.1-.7s.08-.55.11-.7l1.61-8.55Z"/><path class="cls-4" d="M224.77,112.32a3,3,0,0,0-4.34,0,10.21,10.21,0,0,0,0,6.84,3,3,0,0,0,4.34,0,10,10,0,0,0,0-6.84Zm-2.17-2.38a4.19,4.19,0,0,1,3.48,1.26c.66.85,1,2.36,1,4.54s-.33,3.69-1,4.54a5.42,5.42,0,0,1-7,0c-.66-.85-1-2.36-1-4.54s.33-3.69,1-4.54A4.17,4.17,0,0,1,222.6,109.94Z"/><path class="cls-4" d="M232.8,115.33h2.27a2.51,2.51,0,0,0,1.64-.42,2.12,2.12,0,0,0,.45-1.57,2.05,2.05,0,0,0-.45-1.54,2.47,2.47,0,0,0-1.64-.4H232.8v3.92Zm6.4,6h-1.73l-1-3.48a1.4,1.4,0,0,0-1.41-1.12l-2.3,0v4.62h-1.6V110.15a39,39,0,0,1,3.9-.14,4.56,4.56,0,0,1,2.86.69,3.18,3.18,0,0,1,.83,2.54,3.6,3.6,0,0,1-.47,2,2.2,2.2,0,0,1-1.58.83v.08a2,2,0,0,1,1.41,1.62Z"/><path class="cls-4" d="M244.57,110.15v8.78a1.12,1.12,0,0,0,.23.8,1.05,1.05,0,0,0,.79.24h4l.08,1.24c-1,.1-2.48.15-4.31.15-1.58,0-2.38-.73-2.38-2.2v-9Z"/><path class="cls-4" d="M254.93,111.43V120c.69,0,1.5,0,2.41,0a2.32,2.32,0,0,0,2.12-.93,10,10,0,0,0,0-6.78,2.32,2.32,0,0,0-2.12-.94h-2.41Zm-1.62,9.9V110.15c1.42-.1,2.76-.14,4-.14a4.16,4.16,0,0,1,3.45,1.24c.65.83,1,2.33,1,4.49s-.33,3.66-1,4.49a4.16,4.16,0,0,1-3.45,1.24C256.07,121.47,254.73,121.43,253.31,121.33Z"/><path class="cls-4" d="M269.91,116.71l-2.27-.63a2.86,2.86,0,0,1-1.71-1.09,3.76,3.76,0,0,1-.51-2.09,4.69,4.69,0,0,1,.21-1.54,1.6,1.6,0,0,1,.7-.9,3.08,3.08,0,0,1,1.12-.41,11.93,11.93,0,0,1,1.65-.09,14.23,14.23,0,0,1,3.37.34l-.1,1.18c-1.56,0-2.63-.08-3.2-.08a3.7,3.7,0,0,0-1.69.25c-.28.17-.42.6-.42,1.3a1.79,1.79,0,0,0,.3,1.17,2.06,2.06,0,0,0,1,.53l2.22.62a2.93,2.93,0,0,1,1.76,1.1,3.69,3.69,0,0,1,.51,2.07,2.92,2.92,0,0,1-.84,2.47,5.26,5.26,0,0,1-3,.61,19.59,19.59,0,0,1-3.51-.32l.11-1.2c1.69,0,2.83.08,3.44.08a3.31,3.31,0,0,0,1.69-.32c.29-.21.43-.65.43-1.33a1.86,1.86,0,0,0-.29-1.19A2.1,2.1,0,0,0,269.91,116.71Z"/><path class="cls-4" d="M281.89,114.23h.76a1,1,0,0,1,1.17,1.16v.67a1.25,1.25,0,0,1-.25.91,1.28,1.28,0,0,1-.92.25h-.76a1,1,0,0,1-1.16-1.16v-.67a1.27,1.27,0,0,1,.25-.91A1.25,1.25,0,0,1,281.89,114.23Z"/><path class="cls-4" d="M298.26,112.32a3,3,0,0,0-4.34,0,10.21,10.21,0,0,0,0,6.84,3,3,0,0,0,4.34,0,10,10,0,0,0,0-6.84Zm-2.17-2.38a4.19,4.19,0,0,1,3.48,1.26c.66.85,1,2.36,1,4.54s-.33,3.69-1,4.54a5.42,5.42,0,0,1-6.95,0c-.66-.85-1-2.36-1-4.54s.33-3.69,1-4.54A4.17,4.17,0,0,1,296.09,109.94Z"/><path class="cls-4" d="M313.43,110.15V120.7q0,.63-.6.63H311.3a.72.72,0,0,1-.7-.5l-3.48-7.62c-.39-.84-.61-1.36-.67-1.55h-.22a13.6,13.6,0,0,1,.08,1.55v8.12h-1.62V110.78c0-.42.2-.63.61-.63h1.49a.78.78,0,0,1,.72.5l3.38,7.42c0,.1.12.26.23.48s.21.43.3.63l.25.56h.24c-.05-.65-.08-1.23-.08-1.73v-7.86Z"/><path class="cls-4" d="M324.8,120l.08,1.25c-1,.09-2.58.13-4.79.13a2.37,2.37,0,0,1-1.64-.54,1.92,1.92,0,0,1-.61-1.47v-7.22a1.92,1.92,0,0,1,.61-1.47,2.37,2.37,0,0,1,1.64-.54c2.21,0,3.81,0,4.79.13l-.08,1.26h-4.43a.85.85,0,0,0-.69.24,1.18,1.18,0,0,0-.21.8v2.23h4.72v1.32h-4.72V119a1.2,1.2,0,0,0,.21.8.85.85,0,0,0,.69.23Z"/><rect class="cls-5" x="334.18" y="110.15" width="1.62" height="11.18"/><path class="cls-4" d="M349.36,110.15V120.7q0,.63-.6.63h-1.54a.72.72,0,0,1-.69-.5L343,113.21a14.55,14.55,0,0,1-.66-1.55h-.23a11.63,11.63,0,0,1,.08,1.55v8.12h-1.62V110.78a.55.55,0,0,1,.62-.63h1.49a.77.77,0,0,1,.71.5l3.39,7.42c0,.1.12.26.22.48s.21.43.3.63.18.39.25.56h.25c-.06-.65-.08-1.23-.08-1.73v-7.86Z"/><path class="cls-4" d="M357.77,116.71l-2.27-.63a2.86,2.86,0,0,1-1.71-1.09,3.76,3.76,0,0,1-.51-2.09,5,5,0,0,1,.2-1.54,1.61,1.61,0,0,1,.71-.9,3,3,0,0,1,1.12-.41A11.93,11.93,0,0,1,357,110a14.23,14.23,0,0,1,3.37.34l-.1,1.18c-1.57,0-2.63-.08-3.21-.08a3.68,3.68,0,0,0-1.68.25c-.28.17-.42.6-.42,1.3a1.79,1.79,0,0,0,.3,1.17,2.06,2.06,0,0,0,1,.53l2.22.62a3,3,0,0,1,1.76,1.1,3.69,3.69,0,0,1,.51,2.07,2.92,2.92,0,0,1-.84,2.47,5.28,5.28,0,0,1-3,.61,19.5,19.5,0,0,1-3.51-.32l.11-1.2c1.69,0,2.83.08,3.43.08a3.32,3.32,0,0,0,1.7-.32,1.61,1.61,0,0,0,.43-1.33,1.86,1.86,0,0,0-.29-1.19A2.14,2.14,0,0,0,357.77,116.71Z"/><polygon class="cls-4" points="372.65 111.59 369.11 111.59 369.11 121.33 367.47 121.33 367.47 111.59 363.96 111.59 363.96 110.15 372.65 110.15 372.65 111.59"/><rect class="cls-5" x="376.35" y="110.15" width="1.62" height="11.18"/><polygon class="cls-4" points="390.37 111.59 386.82 111.59 386.82 121.33 385.18 121.33 385.18 111.59 381.67 111.59 381.67 110.15 390.37 110.15 390.37 111.59"/><path class="cls-4" d="M402.25,110.15V117a5.25,5.25,0,0,1-.92,3.49,4,4,0,0,1-3.13,1,4.23,4.23,0,0,1-3.23-1,5.08,5.08,0,0,1-1-3.49v-6.87h1.62V117a3.92,3.92,0,0,0,.55,2.4,3.11,3.11,0,0,0,3.88,0,3.91,3.91,0,0,0,.56-2.4v-6.87Z"/><polygon class="cls-4" points="414.6 111.59 411.05 111.59 411.05 121.33 409.42 121.33 409.42 111.59 405.9 111.59 405.9 110.15 414.6 110.15 414.6 111.59"/><path class="cls-4" d="M425.2,120l.08,1.25c-1,.09-2.58.13-4.79.13a2.37,2.37,0,0,1-1.64-.54,1.92,1.92,0,0,1-.61-1.47v-7.22a1.92,1.92,0,0,1,.61-1.47,2.37,2.37,0,0,1,1.64-.54c2.21,0,3.81,0,4.79.13l-.08,1.26h-4.44a.87.87,0,0,0-.69.24,1.24,1.24,0,0,0-.2.8v2.23h4.71v1.32h-4.71V119a1.26,1.26,0,0,0,.2.8.87.87,0,0,0,.69.23Z"/><path class="cls-3" d="M175.5,89.81a8,8,0,0,0,3.29-6.92A8.1,8.1,0,0,0,175.57,76q-3.23-2.39-9.41-2.39h-6.32V91.27a22.5,22.5,0,0,0,6.32.93c4,0,7.15-.8,9.34-2.39Zm-4.19-19.92a9.56,9.56,0,0,0,4-3.06,7.88,7.88,0,0,0,1.53-4.89,7.29,7.29,0,0,0-1.8-5,10.57,10.57,0,0,0-4.55-3,17,17,0,0,0-5.62-1,20.81,20.81,0,0,0-5,.67V70.92h6.32a13,13,0,0,0,5.15-1ZM152.92,53.6c-.62-1.09-1.86-1.63-3.72-1.63h-1.33V50.64h17.29A30.59,30.59,0,0,1,177.76,53q5.36,2.4,5.36,9.24A8.57,8.57,0,0,1,181,67.93a14.21,14.21,0,0,1-6.52,4q6.12,1,8.55,3.62a10,10,0,0,1,2.42,7q0,6.72-5.28,9.34a29.07,29.07,0,0,1-13,2.63H153.85V58.62A10.45,10.45,0,0,0,152.92,53.6Z"/><path class="cls-3" d="M195.19,58a4.37,4.37,0,0,1-1.1-3,2.87,2.87,0,0,1,.83-2.2,3.09,3.09,0,0,1,2.23-.8,3.37,3.37,0,0,1,2.62,1.27,4.37,4.37,0,0,1,1.1,3,2.9,2.9,0,0,1-.83,2.19,3.05,3.05,0,0,1-2.23.8A3.36,3.36,0,0,1,195.19,58Zm-.84,8.21c-.62-1.08-1.86-1.63-3.72-1.63H189.3V63.27h6a8.39,8.39,0,0,1,3.69.63,3.72,3.72,0,0,1,1.76,2.3,18,18,0,0,1,.53,5V94.53h-6V71.25A10.46,10.46,0,0,0,194.35,66.23Z"/><path class="cls-3" d="M229.17,90.74a11.65,11.65,0,0,0,2.92-4.92,23.76,23.76,0,0,0,0-13.84,11.65,11.65,0,0,0-2.92-4.92,6.19,6.19,0,0,0-8.71,0A11.66,11.66,0,0,0,217.53,72a23.76,23.76,0,0,0,0,13.84,11.66,11.66,0,0,0,2.93,4.92,6.19,6.19,0,0,0,8.71,0ZM217,93a13.79,13.79,0,0,1-5.05-5.88,20.54,20.54,0,0,1,0-16.5A13.79,13.79,0,0,1,217,64.77a15.34,15.34,0,0,1,15.7,0,13.72,13.72,0,0,1,5.05,5.88,20.54,20.54,0,0,1,0,16.5A13.72,13.72,0,0,1,232.66,93,15.34,15.34,0,0,1,217,93Z"/><path class="cls-3" d="M290.92,96.06a8.05,8.05,0,0,1-3.76-4.56,25.44,25.44,0,0,1-1.1-8.28V57.62L269.43,94.53H268.1L250.81,57V94.53h-2.66V50.64h6.32l16,34.58,15.63-34.58h6V83.22q0,6.19,1.56,9.58c1,2.26,2.63,3.39,4.75,3.39v1.33A15.65,15.65,0,0,1,290.92,96.06Z"/><path class="cls-3" d="M320.84,68.33a5.64,5.64,0,0,0-5.25-3.06A5,5,0,0,0,312,66.83a10.39,10.39,0,0,0-2.5,4.29,19.49,19.49,0,0,0-.89,6.12h14q0-5.85-1.73-8.91ZM308.61,93a13.42,13.42,0,0,1-4.73-5.85,22.28,22.28,0,0,1,0-16.53,13.74,13.74,0,0,1,4.62-5.88,11.89,11.89,0,0,1,7.09-2.16q6.71,0,10,3.75t3.29,10.88l-.14,2.66H308.61A15.88,15.88,0,0,0,311,89a7.53,7.53,0,0,0,6.58,3.52,9.87,9.87,0,0,0,5.29-1.33,13.8,13.8,0,0,0,4-4l1.33,1a14.43,14.43,0,0,1-5.12,5.32,13.6,13.6,0,0,1-6.85,1.66A13.1,13.1,0,0,1,308.61,93Z"/><path class="cls-3" d="M355.62,91.54a13.4,13.4,0,0,0,2.86-3V67.26c-1.33-.62-2.48-1.11-3.46-1.46a8.39,8.39,0,0,0-2.86-.53A6.69,6.69,0,0,0,345.88,69c-1.35,2.48-2,5.79-2,9.91a21.66,21.66,0,0,0,1.93,9.88,6.13,6.13,0,0,0,5.72,3.75,7.1,7.1,0,0,0,4.12-1Zm-15-.94c-2.07-3-3.1-7-3.1-11.7s1.08-8.64,3.23-11.7,5.29-4.59,9.41-4.59a16.56,16.56,0,0,1,4.45.53,22.21,22.21,0,0,1,3.86,1.46v-6a10.45,10.45,0,0,0-.93-5c-.62-1.09-1.86-1.63-3.72-1.63H352.5V50.64h6a8.39,8.39,0,0,1,3.69.63,3.64,3.64,0,0,1,1.76,2.29,17.6,17.6,0,0,1,.54,5.06V94.53h-3.33l-2.33-3h-.33a11.65,11.65,0,0,1-3.42,2.66,12.6,12.6,0,0,1-5.56,1A10.05,10.05,0,0,1,340.63,90.6Z"/><path class="cls-3" d="M389.94,59.28a41.17,41.17,0,0,0-2.8-3.69A12.05,12.05,0,0,0,384,53.13,9.44,9.44,0,0,0,379.3,52V50.64h8a6.88,6.88,0,0,1,4.92,1.89A34.19,34.19,0,0,1,396.59,58l6.65,10,13.3-17.29h3.32l-15,19.62,10.64,15.62A26.39,26.39,0,0,0,420,91a7.71,7.71,0,0,0,5.22,2.08v1.43h-7a7.22,7.22,0,0,1-5.05-2,25.7,25.7,0,0,1-4.26-5.29l-8-12L386,94.53h-3.33l16.63-21.61Z"/></svg>